<svg width="24" height="23" viewBox="0 0 24 23" fill="none" xmlns="http://www.w3.org/2000/svg">
<path d="M12.2161 1.75878C10.2919 1.75878 8.41094 2.32936 6.81105 3.39837C5.21116 4.46738 3.9642 5.98681 3.22785 7.76451C2.4915 9.54221 2.29884 11.4983 2.67423 13.3855C3.04962 15.2727 3.97619 17.0062 5.33679 18.3668C6.69738 19.7274 8.43088 20.654 10.3181 21.0294C12.2053 21.4048 14.1614 21.2121 15.9391 20.4758C17.7168 19.7394 19.2362 18.4925 20.3052 16.8926C21.3743 15.2927 21.9448 13.4117 21.9448 11.4876C21.9448 10.0477 21.6325 8.68157 21.0723 7.45369C20.9959 7.26977 20.9939 7.06335 21.0668 6.878C21.1397 6.69265 21.2817 6.54286 21.4629 6.46022C21.6442 6.37759 21.8504 6.36857 22.0381 6.43508C22.2258 6.5016 22.3804 6.63843 22.4692 6.81672C23.1205 8.24019 23.481 9.82239 23.481 11.4876C23.481 17.7088 18.4374 22.7524 12.2161 22.7524C5.99477 22.7524 0.951172 17.7088 0.951172 11.4876C0.951172 5.26626 5.99477 0.222656 12.2161 0.222656C13.8812 0.222656 15.4624 0.584157 16.8869 1.23445C16.9821 1.27399 17.0683 1.33228 17.1405 1.40585C17.2127 1.47943 17.2693 1.56678 17.3071 1.6627C17.3448 1.75862 17.3628 1.86115 17.36 1.96418C17.3573 2.06722 17.3339 2.16864 17.2911 2.26242C17.2483 2.3562 17.1871 2.44041 17.1111 2.51004C17.0351 2.57967 16.9459 2.63329 16.8488 2.66771C16.7516 2.70213 16.6485 2.71665 16.5456 2.71039C16.4428 2.70413 16.3422 2.67724 16.2499 2.6313C14.9832 2.05531 13.6076 1.75778 12.2161 1.75878ZM21.4635 2.2401C21.6074 2.38411 21.6881 2.57932 21.6881 2.78286C21.6881 2.9864 21.6074 3.18161 21.4635 3.32562L14.8633 9.92685C15.2432 10.571 15.3751 11.3315 15.2344 12.066C15.0936 12.8004 14.6898 13.4583 14.0986 13.9163C13.5074 14.3743 12.7695 14.6009 12.0232 14.5537C11.2769 14.5065 10.5734 14.1888 10.0446 13.66C9.51586 13.1312 9.1981 12.4277 9.15092 11.6814C9.10374 10.9351 9.33039 10.1972 9.78837 9.60604C10.2464 9.01489 10.9042 8.61107 11.6387 8.47029C12.3731 8.3295 13.1337 8.46143 13.7778 8.84132L20.378 2.2401C20.522 2.09626 20.7172 2.01547 20.9208 2.01547C21.1243 2.01547 21.3195 2.09626 21.4635 2.2401ZM12.2161 9.95143C11.8087 9.95143 11.4179 10.1133 11.1299 10.4013C10.8418 10.6894 10.6799 11.0801 10.6799 11.4876C10.6799 11.895 10.8418 12.2857 11.1299 12.5738C11.4179 12.8618 11.8087 13.0237 12.2161 13.0237C12.6235 13.0237 13.0142 12.8618 13.3023 12.5738C13.5903 12.2857 13.7522 11.895 13.7522 11.4876C13.7522 11.0801 13.5903 10.6894 13.3023 10.4013C13.0142 10.1133 12.6235 9.95143 12.2161 9.95143Z" fill="black" fill-opacity="0.7"/>
</svg>
