<svg width="30" height="37" viewBox="0 0 30 37" fill="none" xmlns="http://www.w3.org/2000/svg">
  <path
    d="M26.8817 0.286274L2.44276 0.729139C2.15148 0.734269 1.86406 0.796742 1.59693 0.912988C1.3298 1.02923 1.08819 1.19698 0.885911 1.40663C0.68363 1.61628 0.524639 1.86373 0.418024 2.13485C0.311409 2.40597 0.259257 2.69544 0.264551 2.98672L0.855966 34.693C0.866804 35.2809 1.11068 35.8404 1.53396 36.2486C1.95725 36.6567 2.52529 36.88 3.11319 36.8694L27.5539 36.4262C27.6847 36.4247 27.815 36.4112 27.9433 36.3859C28.454 36.2849 28.9129 36.0074 29.2396 35.6021C29.5663 35.1968 29.74 34.6895 29.7303 34.169L29.1389 2.46267C29.128 1.87477 28.8842 1.31525 28.4609 0.90712C28.0376 0.498993 27.4696 0.275676 26.8817 0.286274ZM27.6604 2.48973L28.2518 34.196C28.2556 34.392 28.1815 34.5815 28.0456 34.7229C27.9097 34.8642 27.7232 34.9457 27.5272 34.9495L3.08648 35.3927C2.89072 35.3961 2.70163 35.3216 2.56071 35.1857C2.41979 35.0498 2.33854 34.8635 2.3348 34.6678L1.74338 2.96147C1.73955 2.76546 1.81375 2.57596 1.94964 2.43465C2.08553 2.29334 2.272 2.2118 2.46801 2.20797L26.9087 1.76475C27.1045 1.76141 27.2936 1.83587 27.4345 1.97179C27.5754 2.1077 27.6567 2.29398 27.6604 2.48973ZM23.308 7.00599C23.3109 7.17932 23.2528 7.34817 23.1439 7.48303C23.035 7.61789 22.8821 7.71017 22.7121 7.74376C22.6695 7.75217 22.6263 7.75683 22.583 7.75768L7.00951 8.03924C6.81346 8.04283 6.624 7.96838 6.48283 7.83229C6.34166 7.69619 6.26033 7.50959 6.25674 7.31353C6.25316 7.11747 6.3276 6.92802 6.46369 6.78684C6.59979 6.64567 6.78639 6.56435 6.98245 6.56076L22.5559 6.2792C22.653 6.2775 22.7495 6.29495 22.8399 6.33057C22.9303 6.36618 23.0127 6.41925 23.0826 6.48675C23.1524 6.55425 23.2083 6.63484 23.2469 6.72394C23.2856 6.81303 23.3063 6.90888 23.308 7.00599ZM23.4195 12.9174C23.4229 13.0913 23.3648 13.2608 23.2556 13.3962C23.1463 13.5315 22.9928 13.624 22.8221 13.6573C22.7795 13.6658 22.7361 13.6699 22.6927 13.6694L7.12683 13.9514C7.02975 13.9532 6.93327 13.9358 6.8429 13.9003C6.75253 13.8648 6.67004 13.8118 6.60014 13.7444C6.53024 13.677 6.4743 13.5965 6.43551 13.5075C6.39671 13.4185 6.37583 13.3227 6.37406 13.2257C6.37228 13.1286 6.38964 13.0321 6.42515 12.9417C6.46066 12.8514 6.51362 12.7689 6.58101 12.699C6.64839 12.6291 6.72889 12.5731 6.8179 12.5343C6.90691 12.4956 7.00269 12.4747 7.09976 12.4729L22.6732 12.1913C22.8682 12.1894 23.0561 12.2647 23.1959 12.4007C23.3356 12.5367 23.416 12.7224 23.4195 12.9174ZM15.7519 18.9699C15.7548 19.1436 15.6965 19.3127 15.5873 19.4477C15.478 19.5827 15.3246 19.6748 15.1542 19.7081C15.1116 19.7165 15.0684 19.7211 15.0251 19.722L7.24016 19.8624C7.14047 19.8687 7.04053 19.8548 6.94638 19.8214C6.85223 19.788 6.76582 19.7359 6.69237 19.6682C6.61892 19.6005 6.55996 19.5186 6.51903 19.4275C6.47811 19.3364 6.45608 19.2379 6.45428 19.138C6.45247 19.0382 6.47092 18.939 6.50853 18.8464C6.54613 18.7539 6.60209 18.6699 6.67305 18.5996C6.744 18.5293 6.82847 18.4741 6.92135 18.4373C7.01423 18.4006 7.1136 18.383 7.21345 18.3857L14.998 18.2435C15.1934 18.2415 15.3816 18.317 15.5215 18.4534C15.6614 18.5898 15.7416 18.776 15.7446 18.9714L15.7519 18.9699Z"
    fill="white" />
</svg>