<svg width="38" height="37" viewBox="0 0 38 37" fill="none" xmlns="http://www.w3.org/2000/svg">
<path d="M3.69922 18.4072C3.69922 24.8179 3.69922 31.4241 5.93982 33.4148C8.18042 35.4072 11.7878 35.4072 18.9992 35.4072C26.2123 35.4072 29.818 35.4072 32.0586 33.4148C34.2992 31.4241 34.2992 24.8179 34.2992 18.4072" stroke="white" stroke-width="2.55"/>
<path d="M23.522 22.1506L33.7356 19.0872C34.7471 18.7829 35.2537 18.6316 35.575 18.2678C35.638 18.1968 35.6948 18.1206 35.745 18.04C36 17.6269 36 17.0999 36 16.0425C36 11.8775 36 9.79503 34.8559 8.38913C34.6359 8.11859 34.3886 7.87136 34.1181 7.65133C32.7122 6.50723 30.6297 6.50723 26.4647 6.50723H11.537C7.372 6.50723 5.2895 6.50723 3.8836 7.65133C3.6116 7.87233 3.3651 8.11883 3.1458 8.38913C2 9.79503 2 11.8775 2 16.0425C2 17.0999 2 17.6269 2.255 18.04C2.306 18.1199 2.3621 18.1964 2.425 18.2678C2.748 18.6316 3.2529 18.7829 4.2644 19.0872L14.478 22.1506M9.65 6.50723C11.0491 6.47323 12.472 5.58073 12.948 4.26323L13.0075 4.08813L13.05 3.95723C13.1214 3.74133 13.1588 3.63423 13.1962 3.53903C13.4363 2.94201 13.841 2.4254 14.3631 2.04923C14.8852 1.67307 15.5034 1.4528 16.1457 1.41403C16.246 1.40723 16.3616 1.40723 16.586 1.40723H21.4106C21.6367 1.40723 21.7506 1.40723 21.8526 1.41403C22.4949 1.4528 23.1131 1.67307 23.6352 2.04923C24.1573 2.4254 24.562 2.94201 24.8021 3.53903C24.8412 3.63423 24.8769 3.74303 24.9483 3.95723L24.9925 4.08813C25.0231 4.17823 25.0367 4.22413 25.052 4.26323C25.528 5.58073 26.9492 6.47323 28.3483 6.50723" stroke="white" stroke-width="2.55"/>
<path d="M22.4 19.2568H15.6C15.3746 19.2568 15.1584 19.3464 14.999 19.5058C14.8396 19.6652 14.75 19.8814 14.75 20.1068V23.7822C14.75 23.952 14.8009 24.1178 14.896 24.2584C14.9912 24.399 15.1262 24.5079 15.2838 24.571L16.4738 25.047C18.0954 25.6959 19.9046 25.6959 21.5262 25.047L22.7162 24.571C22.8738 24.5079 23.0088 24.399 23.104 24.2584C23.1991 24.1178 23.25 23.952 23.25 23.7822V20.1068C23.25 19.8814 23.1604 19.6652 23.001 19.5058C22.8416 19.3464 22.6254 19.2568 22.4 19.2568Z" stroke="white" stroke-width="2.55" stroke-linecap="round"/>
</svg>
