<svg width="32" height="31" viewBox="0 0 32 31" fill="none" xmlns="http://www.w3.org/2000/svg">
<path d="M15.987 8.43835C12.1806 8.43835 9.11035 11.5086 9.11035 15.315C9.11035 19.1215 12.1806 22.1917 15.987 22.1917C19.7935 22.1917 22.8637 19.1215 22.8637 15.315C22.8637 11.5086 19.7935 8.43835 15.987 8.43835ZM15.987 19.7858C13.5272 19.7858 11.5163 17.7808 11.5163 15.315C11.5163 12.8492 13.5212 10.8443 15.987 10.8443C18.4528 10.8443 20.4578 12.8492 20.4578 15.315C20.4578 17.7808 18.4468 19.7858 15.987 19.7858ZM24.749 8.15706C24.749 9.04881 24.0308 9.76102 23.145 9.76102C22.2533 9.76102 21.5411 9.04283 21.5411 8.15706C21.5411 7.27129 22.2592 6.55309 23.145 6.55309C24.0308 6.55309 24.749 7.27129 24.749 8.15706ZM29.3035 9.78496C29.2018 7.63637 28.711 5.73316 27.137 4.16511C25.5689 2.59705 23.6657 2.10629 21.5171 1.99856C19.3027 1.87288 12.6654 1.87288 10.451 1.99856C8.30837 2.1003 6.40516 2.59107 4.83112 4.15912C3.25708 5.72717 2.7723 7.63038 2.66458 9.77897C2.53889 11.9934 2.53889 18.6307 2.66458 20.8451C2.76632 22.9937 3.25708 24.8969 4.83112 26.465C6.40516 28.033 8.30238 28.5238 10.451 28.6315C12.6654 28.7572 19.3027 28.7572 21.5171 28.6315C23.6657 28.5298 25.5689 28.039 27.137 26.465C28.705 24.8969 29.1958 22.9937 29.3035 20.8451C29.4292 18.6307 29.4292 11.9994 29.3035 9.78496ZM26.4427 23.2211C25.9759 24.3942 25.0722 25.2979 23.8931 25.7707C22.1276 26.471 17.9381 26.3094 15.987 26.3094C14.0359 26.3094 9.84051 26.465 8.08094 25.7707C6.90789 25.3039 6.00417 24.4002 5.53136 23.2211C4.83112 21.4556 4.99271 17.2661 4.99271 15.315C4.99271 13.3639 4.83711 9.16851 5.53136 7.40894C5.99818 6.23589 6.90191 5.33217 8.08094 4.85936C9.8465 4.15912 14.0359 4.32071 15.987 4.32071C17.9381 4.32071 22.1336 4.16511 23.8931 4.85936C25.0662 5.32618 25.9699 6.22991 26.4427 7.40894C27.143 9.17449 26.9814 13.3639 26.9814 15.315C26.9814 17.2661 27.143 21.4616 26.4427 23.2211Z" fill="white"/>
</svg>
