<svg width="22" height="25" viewBox="0 0 22 25" fill="none" xmlns="http://www.w3.org/2000/svg">
<path d="M1.36658 14.5731C1.14906 15.9967 2.12024 16.9842 3.30893 17.4764C7.86661 19.3657 14.2083 19.3657 18.766 17.4764C19.9547 16.9842 20.9259 15.9957 20.7084 14.5731C20.5756 13.6979 19.9149 12.9698 19.4257 12.258C18.7854 11.3144 18.7221 10.2861 18.7211 9.19133C18.7221 4.96146 15.2827 1.53223 11.0375 1.53223C6.79229 1.53223 3.35284 4.96146 3.35284 9.19133C3.35284 10.2861 3.28953 11.3155 2.6482 12.258C2.16006 12.9698 1.50036 13.6979 1.36658 14.5731Z" stroke="black" stroke-width="1.53182" stroke-linecap="round" stroke-linejoin="round"/>
<path d="M7.39844 19.7227C7.815 21.8146 9.2866 23.3607 11.0365 23.3607C12.7873 23.3607 14.2571 21.8146 14.6746 19.7227" stroke="black" stroke-width="1.53182" stroke-linecap="round" stroke-linejoin="round"/>
</svg>
