<svg width="21" height="20" viewBox="0 0 21 20" fill="none" xmlns="http://www.w3.org/2000/svg">
<g clip-path="url(#clip0_474_2692)">
<path d="M20.1656 10.2305C20.1656 9.55068 20.1104 8.86724 19.9929 8.19849H10.5605V12.0493H15.962C15.7378 13.2913 15.0177 14.3899 13.9631 15.0881V17.5867H17.1856C19.0779 15.845 20.1656 13.2729 20.1656 10.2305Z" fill="#4285F4"/>
<path d="M10.5604 20.0008C13.2574 20.0008 15.5319 19.1152 17.1891 17.5867L13.9666 15.088C13.07 15.698 11.9126 16.0434 10.5641 16.0434C7.95521 16.0434 5.7432 14.2833 4.94952 11.917H1.62415V14.4928C3.32174 17.8696 6.77939 20.0008 10.5604 20.0008Z" fill="#34A853"/>
<path d="M4.946 11.917C4.52711 10.675 4.52711 9.3302 4.946 8.08824V5.51245H1.6243C0.205963 8.3381 0.205963 11.6671 1.6243 14.4928L4.946 11.917Z" fill="#FBBC04"/>
<path d="M10.5604 3.95805C11.9861 3.936 13.364 4.47247 14.3965 5.45722L17.2516 2.60218C15.4437 0.904587 13.0443 -0.0287217 10.5604 0.000673888C6.77939 0.000673888 3.32174 2.13185 1.62415 5.51234L4.94584 8.08813C5.73585 5.71811 7.95154 3.95805 10.5604 3.95805Z" fill="#EA4335"/>
</g>
<defs>
<clipPath id="clip0_474_2692">
<rect width="20" height="20" fill="white" transform="translate(0.360352)"/>
</clipPath>
</defs>
</svg>
