<svg width="20" height="19" viewBox="0 0 20 19" fill="none" xmlns="http://www.w3.org/2000/svg">
  <path
    d="M0.050806 18.2047C1.62318 15.4864 4.14354 13.6304 7.06365 12.9613C5.67607 12.3928 4.52894 11.3601 3.81824 10.0397C3.10755 8.7193 2.8774 7.19308 3.1671 5.7218C3.45681 4.25053 4.2484 2.9255 5.40663 1.97309C6.56486 1.02068 8.01786 0.5 9.51739 0.5C11.0169 0.5 12.4699 1.02068 13.6281 1.97309C14.7864 2.9255 15.578 4.25053 15.8677 5.7218C16.1574 7.19308 15.9272 8.7193 15.2165 10.0397C14.5058 11.3601 13.3587 12.3928 11.9711 12.9613C14.8874 13.6276 17.4116 15.4864 18.984 18.2047C19.0295 18.2918 19.0396 18.393 19.0123 18.4873C18.9849 18.5816 18.9222 18.6617 18.8372 18.7108C18.7521 18.76 18.6514 18.7744 18.556 18.751C18.4607 18.7276 18.378 18.6683 18.3253 18.5855C16.4655 15.3674 13.1704 13.4458 9.51739 13.4458C5.86439 13.4458 2.56927 15.3674 0.709452 18.5855C0.676069 18.6433 0.628071 18.6913 0.570269 18.7247C0.512466 18.7581 0.446894 18.7758 0.380129 18.7758C0.313221 18.776 0.247484 18.7583 0.18977 18.7244C0.102497 18.6739 0.038847 18.5908 0.0127926 18.4933C-0.0132599 18.3959 0.000411987 18.2921 0.050806 18.2047ZM15.2282 6.97353C15.2282 5.84404 14.8932 4.73992 14.2657 3.80079C13.6382 2.86165 12.7463 2.12969 11.7028 1.69745C10.6593 1.26521 9.51105 1.15212 8.40327 1.37247C7.29549 1.59283 6.27792 2.13673 5.47925 2.93539C4.68058 3.73406 4.13669 4.75163 3.91633 5.85941C3.69598 6.9672 3.80907 8.11544 4.24131 9.15895C4.67355 10.2025 5.40551 11.0944 6.34465 11.7219C7.28378 12.3494 8.3879 12.6843 9.51739 12.6843C11.0314 12.6826 12.483 12.0803 13.5536 11.0097C14.6242 9.93912 15.2264 8.48758 15.2282 6.97353Z"
    fill="currentColor" />
</svg>