<svg width="19" height="16" viewBox="0 0 19 16" fill="none" xmlns="http://www.w3.org/2000/svg">
  <path
    d="M13.0426 4.44336L9.78856 7.64235C9.43754 7.47326 9.03804 7.4337 8.66067 7.53066C8.28331 7.62762 7.95236 7.85485 7.72632 8.1722C7.50028 8.48956 7.39369 8.8766 7.4254 9.26493C7.45711 9.65326 7.62507 10.0179 7.89961 10.2944C8.17414 10.5708 8.53756 10.7414 8.92566 10.7758C9.31376 10.8103 9.70154 10.7064 10.0205 10.4826C10.3394 10.2588 10.569 9.92952 10.6686 9.55284C10.7682 9.17617 10.7315 8.77641 10.5649 8.4242L13.8245 5.22521L13.0426 4.44336Z"
    fill="currentColor" />
  <path
    d="M9.0898 5.96117e-06C7.35691 -0.00197939 5.65964 0.491987 4.19845 1.42357C2.73725 2.35515 1.57317 3.68543 0.843687 5.2573C0.114201 6.82916 -0.150221 8.57697 0.0816523 10.2943C0.313525 12.0116 1.03201 13.6267 2.15224 14.9488L2.31742 15.1415H15.8622L16.0274 14.9488C17.1476 13.6267 17.8661 12.0116 18.098 10.2943C18.3298 8.57697 18.0654 6.82916 17.3359 5.2573C16.6064 3.68543 15.4424 2.35515 13.9812 1.42357C12.52 0.491987 10.8227 -0.00197939 9.0898 5.96117e-06ZM15.3336 14.0403H2.846C1.85804 12.8041 1.26178 11.3009 1.13363 9.7236H3.0332V8.6224H1.13363C1.22543 6.87401 1.89335 5.20516 3.0332 3.87623L4.38217 5.2252L5.15852 4.44885L3.82056 3.09438C5.13256 1.9342 6.79178 1.24109 8.5392 1.12323V3.05033H9.6404V1.12874C11.5705 1.26871 13.3837 2.10639 14.7414 3.48537C16.0991 4.86435 16.9085 6.69034 17.0184 8.6224H15.1024V9.7236H17.046C16.9178 11.3009 16.3216 12.8041 15.3336 14.0403Z"
    fill="currentColor" />
</svg>