<svg width="16" height="19" viewBox="0 0 16 19" fill="none" xmlns="http://www.w3.org/2000/svg">
  <path
    d="M8.7 0.187564L15.3 3.99716C15.7328 4.24756 16 4.70916 16 5.20916V12.8292C16.0001 13.075 15.9354 13.3165 15.8125 13.5294C15.6896 13.7423 15.5129 13.9191 15.3 14.042L8.7 17.8516C8.48717 17.9744 8.24575 18.0391 8 18.0391C7.75425 18.0391 7.51283 17.9744 7.3 17.8516L0.7 14.0412C0.487237 13.9183 0.310545 13.7417 0.187673 13.5289C0.0648015 13.3162 7.64416e-05 13.0748 0 12.8292V5.20916C0 4.70916 0.2672 4.24756 0.7 3.99716L7.3 0.187564C7.51283 0.0646888 7.75425 0 8 0C8.24575 0 8.48717 0.0646888 8.7 0.187564ZM7.9 1.22596L1.8 4.74756L8 8.32677L14.2 4.74756L8.1 1.22596C8.0696 1.20841 8.03511 1.19917 8 1.19917C7.96489 1.19917 7.9304 1.20841 7.9 1.22596ZM8.6 16.5244L14.7 13.0028C14.7303 12.9852 14.7556 12.9601 14.7731 12.9297C14.7907 12.8994 14.7999 12.865 14.8 12.83V5.78676L8.6 9.36596V16.5244ZM1.2 5.78756V12.83C1.2 12.902 1.2384 12.9676 1.3 13.0028L7.4 16.5244V9.36677L1.2 5.78756Z"
    fill="currentColor" />
</svg>